<?xml version="1.0" encoding="UTF-8" standalone="no"?>
<!-- Created with Inkscape (http://www.inkscape.org/) -->

<svg
   xmlns:dc="http://purl.org/dc/elements/1.1/"
   xmlns:cc="http://creativecommons.org/ns#"
   xmlns:rdf="http://www.w3.org/1999/02/22-rdf-syntax-ns#"
   xmlns:svg="http://www.w3.org/2000/svg"
   xmlns="http://www.w3.org/2000/svg"
   xmlns:sodipodi="http://sodipodi.sourceforge.net/DTD/sodipodi-0.dtd"
   xmlns:inkscape="http://www.inkscape.org/namespaces/inkscape"
   width="308.23959mm"
   height="61.403835mm"
   viewBox="0 0 308.2396 61.403836"
   version="1.1"
   id="svg8"
   sodipodi:docname="drawing.svg"
   inkscape:version="0.92.2 (5c3e80d, 2017-08-06)">
  <defs
     id="defs2">
    <inkscape:path-effect
       effect="spiro"
       id="path-effect4644"
       is_visible="true" />
    <inkscape:path-effect
       effect="spiro"
       id="path-effect4640"
       is_visible="true" />
    <inkscape:path-effect
       effect="spiro"
       id="path-effect4628"
       is_visible="true" />
    <clipPath
       clipPathUnits="userSpaceOnUse"
       id="clipPath4653">
      <rect
         style="opacity:0.75;fill:#3a863d;fill-opacity:1;stroke:#000000;stroke-width:0;stroke-miterlimit:4;stroke-dasharray:none;stroke-opacity:0.97512434"
         id="rect4655"
         width="300.3147"
         height="72.937057"
         x="-0.97902089"
         y="232.13988" />
    </clipPath>
    <clipPath
       clipPathUnits="userSpaceOnUse"
       id="clipPath4681">
      <rect
         style="opacity:0.75;fill:#3a853e;fill-opacity:0.96862745;stroke:#000000;stroke-width:0;stroke-miterlimit:4;stroke-dasharray:none;stroke-opacity:0.97512434"
         id="rect4683"
         width="308.23959"
         height="63.5"
         x="-4.9477711"
         y="232.05193" />
    </clipPath>
  </defs>
  <sodipodi:namedview
     id="base"
     pagecolor="#ffffff"
     bordercolor="#666666"
     borderopacity="1.0"
     inkscape:pageopacity="0.0"
     inkscape:pageshadow="2"
     inkscape:zoom="1.4142136"
     inkscape:cx="379.24086"
     inkscape:cy="-82.734275"
     inkscape:document-units="mm"
     inkscape:current-layer="layer1"
     showgrid="false"
     inkscape:window-width="1920"
     inkscape:window-height="1051"
     inkscape:window-x="-9"
     inkscape:window-y="-9"
     inkscape:window-maximized="1"
     fit-margin-top="0"
     fit-margin-left="0"
     fit-margin-right="0"
     fit-margin-bottom="0" />
  <metadata
     id="metadata5">
    <rdf:RDF>
      <cc:Work
         rdf:about="">
        <dc:format>image/svg+xml</dc:format>
        <dc:type
           rdf:resource="http://purl.org/dc/dcmitype/StillImage" />
        <dc:title></dc:title>
      </cc:Work>
    </rdf:RDF>
  </metadata>
  <g
     inkscape:label="Layer 1"
     inkscape:groupmode="layer"
     id="layer1"
     transform="translate(4.9477711,-234.14809)">
    <g
       id="g4649"
       clip-path="url(#clipPath4681)"
       style="fill:#3a853e;fill-opacity:0.96862745">
      <path
         inkscape:original-d="m -2.4475524,258.08392 c 4.5684999,-13.13493 88.2753204,-2.77416 132.4125824,-4.16084 44.13727,-1.38668 56.78348,17.45894 85.17483,26.18881 28.39134,8.72987 59.06785,-15.33826 88.60141,-23.00699 29.53353,-7.66873 3.42683,-2.77416 5.13984,-4.16084 1.71302,-1.38668 -15.66407,37.20253 -23.4965,55.80419 -7.83244,18.60167 -201.025372,-7.50609 -301.538456,-11.25874 -100.513084,-3.75265 9.1377935,-26.27066 13.7062936,-39.40559 z"
         inkscape:path-effect="#path-effect4628"
         inkscape:connector-curvature="0"
         id="path4626"
         d="m -2.4475524,258.08392 c 7.5542129,-9.14677 17.9485794,-15.75545 29.1808854,-19.57184 11.232306,-3.81639 23.280704,-4.92054 35.116434,-4.11739 23.671459,1.60632 46.129523,10.60955 68.115263,19.52839 27.6096,11.20024 55.60327,22.54764 85.17483,26.18881 15.61428,1.9226 31.59382,1.63916 46.91118,-1.94977 15.31737,-3.58893 29.96572,-10.56732 41.69023,-21.05722 1.64553,-1.47225 3.24772,-3.02278 5.13984,-4.16084 3.74704,-2.25375 8.48311,-2.68927 12.65546,-1.38116 4.17236,1.30812 7.75122,4.28734 10.00642,8.03351 2.2552,3.74616 3.2125,8.21633 2.9373,12.58027 -0.27521,4.36394 -1.75224,8.61592 -4.0289,12.34909 -4.55331,7.46632 -12.10286,12.68891 -20.10737,16.2112 -8.00451,3.5223 -16.57141,5.53739 -24.95941,8.01128 -57.59215,16.98579 -107.50091,55.85246 -166.23984,68.30684 -29.369463,6.2272 -61.167462,5.25807 -87.951011,-8.30604 C 17.801985,361.967 5.8889666,352.08656 -2.6298089,339.72669 -11.148584,327.36682 -16.177234,312.50068 -16.153846,297.48951 c 0.0221,-14.18599 4.672778,-28.46765 13.7062936,-39.40559 z"
         style="opacity:0.5;fill:#3a853e;fill-opacity:0.96862745;stroke:#000000;stroke-width:0;stroke-linecap:butt;stroke-linejoin:miter;stroke-miterlimit:4;stroke-dasharray:none;stroke-opacity:1" />
      <path
         inkscape:original-d="m -10.524475,260.04196 c -0.40819,-12.89018 121.888375,13.70603 182.832165,20.55944 60.94379,6.85341 7.83243,1.95778 11.74825,2.93706 3.91582,0.97929 78.81145,-27.41285 118.21678,-41.11888 39.40532,-13.70603 1.95832,-3.59001 2.93706,-5.38461 0.97878,-1.79461 2.28465,-1.30563 3.42657,-1.95804 1.14194,-0.65242 2.44782,3.26313 3.67133,4.8951 1.22351,1.63197 -9.78993,44.05568 -14.6853,66.08392 -4.89537,22.02823 -1.14194,0.48924 -1.71328,0.73426 -0.57137,0.24502 -201.841238,-4.89537 -302.7622467,-7.34265 -100.9210133,-2.44729 -1.6314372,-0.48978 -2.4475524,-0.73427 -0.8161159,-0.24449 -0.8155859,-25.78115 -1.2237759,-38.67133 z"
         inkscape:path-effect="#path-effect4640"
         inkscape:connector-curvature="0"
         id="path4638"
         d="m -10.524475,260.04196 c 11.03796461,-12.09542 26.976346,-19.07114 43.220394,-21.13678 16.244048,-2.06564 32.806374,0.48361 48.482026,5.21752 31.351305,9.46782 59.640435,27.48053 91.129745,36.4787 3.88192,1.10927 7.8033,2.07848 11.74825,2.93706 22.03683,4.79611 45.28587,6.06692 66.96932,-0.13407 10.84173,-3.10049 21.19461,-8.06622 30.10314,-14.97955 8.90854,-6.91332 16.34705,-15.80025 21.14432,-26.00526 0.87191,-1.85477 1.6704,-3.77341 2.93706,-5.38461 0.42362,-0.53885 0.90283,-1.04392 1.48046,-1.41292 0.57763,-0.36899 1.26254,-0.59552 1.94611,-0.54512 0.54679,0.0403 1.07361,0.25675 1.51662,0.57977 0.44302,0.32302 0.80473,0.74961 1.08825,1.21889 0.56703,0.93856 0.82057,2.02781 1.06646,3.09644 2.75246,11.96201 5.58453,24.19339 4.22863,36.39287 -0.67795,6.09974 -2.43069,12.13101 -5.58262,17.39711 -3.15192,5.2661 -7.751,9.73923 -13.33131,12.29394 -0.56498,0.25865 -1.13878,0.49751 -1.71328,0.73426 -47.54368,19.59241 -100.12097,24.7427 -151.4258,21.26735 -51.304831,-3.47535 -101.668848,-15.2911 -151.3364467,-28.61 -0.8229886,-0.22069 -1.6471076,-0.4422 -2.4475524,-0.73427 -3.5865009,-1.30865 -6.5852039,-4.03969 -8.4531379,-7.36931 -1.867935,-3.32963 -2.63576,-7.2239 -2.437026,-11.03651 0.397467,-7.62524 4.51939,-14.62542 9.666388,-20.26551 z"
         style="opacity:0.75;fill:#3a853e;fill-opacity:0.96862745;stroke:#000000;stroke-width:0;stroke-linecap:butt;stroke-linejoin:miter;stroke-miterlimit:4;stroke-dasharray:none;stroke-opacity:1" />
      <path
         inkscape:original-d="m -20.06993,267.62937 c 1.223512,-11.50323 91.049216,12.2375 136.57343,18.35665 45.52421,6.11914 15.66459,-1.14246 23.4965,-1.71329 7.8319,-0.57083 91.04921,-1.30563 136.57343,-1.95804 45.5242,-0.65242 22.35456,10.11628 33.53146,15.17482 11.1769,5.05854 1.95832,0.81559 2.93706,1.22378 0.97875,0.40819 -1.46825,4.24216 -2.20279,6.36364 -0.73453,2.12147 -3.91583,0.32607 -5.87412,0.48951 -1.95831,0.16343 -217.016059,-1.30563 -325.52448,-1.95805 -108.50842,-0.65241 -2.120948,-0.97928 -3.181819,-1.46853 -1.06087,-0.48924 2.447817,-23.00726 3.671329,-34.51049 z"
         inkscape:path-effect="#path-effect4644"
         inkscape:connector-curvature="0"
         id="path4642"
         d="m -20.06993,267.62937 c 9.409816,-7.37132 21.6522146,-10.51686 33.605188,-10.43117 11.952974,0.0857 23.69842,3.19812 34.931202,7.28536 22.465565,8.17448 44.152526,20.47596 68.03704,21.50246 7.85769,0.3377 15.71451,-0.57404 23.4965,-1.71329 22.88389,-3.3501 45.49065,-8.68317 68.52538,-10.756 23.03473,-2.07283 46.96354,-0.70673 68.04805,8.79796 11.2127,5.05458 21.55709,12.3663 33.53146,15.17482 0.52287,0.12264 1.04947,0.23683 1.55479,0.41873 0.50532,0.18189 0.99267,0.43539 1.38227,0.80505 0.48488,0.46007 0.79899,1.08949 0.90615,1.74925 0.10715,0.65977 0.0115,1.3468 -0.24251,1.96504 -0.25404,0.61825 -0.66317,1.16818 -1.16134,1.61382 -0.49817,0.44564 -1.08398,0.78858 -1.70509,1.03553 -1.84155,0.73219 -3.89588,0.60784 -5.87412,0.48951 -54.65008,-3.26899 -109.09347,6.70718 -163.56041,12.24528 -54.466938,5.53809 -111.214098,6.33342 -161.96407,-14.20333 -1.083687,-0.43853 -2.167034,-0.8881 -3.181819,-1.46853 -2.968331,-1.6978 -5.250552,-4.49966 -6.500917,-7.68244 -1.250365,-3.18279 -1.493313,-6.724 -0.889315,-10.08982 1.207998,-6.73163 5.677665,-12.52068 11.061561,-16.73823 z"
         style="opacity:0.75;fill:#3a853e;fill-opacity:0.96862745;stroke:#000000;stroke-width:0;stroke-linecap:butt;stroke-linejoin:miter;stroke-miterlimit:4;stroke-dasharray:none;stroke-opacity:1" />
    </g>
  </g>
</svg>
